<svg width="26" height="20" viewBox="0 0 26 20" fill="none" xmlns="http://www.w3.org/2000/svg">
<path d="M8.95761 18.5971C16.5167 18.5971 20.6518 12.3337 20.6518 6.91169C20.6518 6.73642 20.6518 6.55865 20.6443 6.38338C21.4493 5.8006 22.1441 5.07907 22.6962 4.25262C21.9442 4.58419 21.1472 4.80272 20.3313 4.90111C21.1908 4.38737 21.8345 3.57904 22.1428 2.62637C21.3353 3.10476 20.4515 3.44059 19.5301 3.61914C18.9106 2.95941 18.0909 2.52236 17.1978 2.37569C16.3048 2.22901 15.3884 2.3809 14.5904 2.80782C13.7925 3.23475 13.1576 3.91288 12.784 4.73718C12.4105 5.56149 12.3192 6.48595 12.5243 7.36739C10.8902 7.28545 9.29164 6.86095 7.83219 6.12141C6.37273 5.38187 5.08503 4.34381 4.05259 3.07456C3.52846 3.9798 3.36851 5.05059 3.60521 6.06948C3.84192 7.08838 4.45753 7.97899 5.32705 8.56047C4.67547 8.53833 4.03822 8.36337 3.46669 8.04968V8.10602C3.46782 9.05433 3.79633 9.97316 4.39671 10.7072C4.99709 11.4413 5.8325 11.9455 6.76174 12.1347C6.40903 12.2319 6.04468 12.2803 5.67883 12.2787C5.42092 12.2794 5.16352 12.2556 4.91016 12.2073C5.17279 13.0236 5.68418 13.7374 6.37271 14.2485C7.06123 14.7597 7.8924 15.0427 8.74979 15.0579C7.29325 16.2019 5.49405 16.8224 3.64196 16.8194C3.31561 16.8208 2.98949 16.8019 2.66547 16.763C4.54524 17.9615 6.72831 18.5978 8.95761 18.5971Z" fill="#EDEDED"/>
</svg>
