<svg width="51" height="52" viewBox="0 0 51 52" fill="none" xmlns="http://www.w3.org/2000/svg">
<g clip-path="url(#clip0_1_653)">
<path fill-rule="evenodd" clip-rule="evenodd" d="M20.5462 5.82895L22.4742 7.37865L21.8253 9.76567C21.7154 10.1702 21.8635 10.5907 22.2025 10.8372C22.373 10.9621 22.5787 11.0295 22.7901 11.0298C22.9798 11.0298 23.17 10.975 23.3384 10.8648L25.4079 9.51011L27.4776 10.8648C27.8284 11.0944 28.2742 11.0839 28.6139 10.8369C28.9527 10.5904 29.1006 10.17 28.9907 9.76557L28.3417 7.37865L30.2696 5.82905C30.5964 5.56669 30.7239 5.13945 30.5946 4.74073C30.4652 4.34171 30.1108 4.07066 29.6919 4.05034L27.2212 3.92986L26.3433 1.61744V1.61725C26.1943 1.22533 25.8272 0.972046 25.408 0.972046C24.9886 0.972046 24.6215 1.22533 24.4727 1.61725L23.5947 3.92986L21.1241 4.05034C20.7051 4.07066 20.3507 4.34171 20.2216 4.73994C20.0917 5.13905 20.2193 5.56669 20.5462 5.82895ZM24.0496 5.48825C24.244 5.47888 24.4315 5.41296 24.589 5.29857C24.7465 5.18419 24.8672 5.02632 24.9362 4.84433L25.4079 3.60198L25.8795 4.84443C25.9486 5.02636 26.0692 5.18419 26.2266 5.29855C26.3841 5.41291 26.5715 5.47884 26.7659 5.48825L28.0931 5.55297L27.0573 6.38545C26.9056 6.50736 26.7928 6.67088 26.7326 6.85598C26.6725 7.04107 26.6676 7.23969 26.7187 7.4275L27.0673 8.7098L25.9561 7.98241C25.7932 7.87559 25.6027 7.81864 25.408 7.81857C25.2132 7.8185 25.0227 7.87531 24.8598 7.98202L23.748 8.7098L24.0967 7.4271C24.1477 7.23935 24.1428 7.04078 24.0826 6.85575C24.0225 6.67073 23.9096 6.50728 23.7579 6.38545L22.7223 5.55297L24.0496 5.48825ZM31.6731 7.96297L33.6012 9.51258L32.9522 11.8996C32.8423 12.3041 32.9904 12.7247 33.3294 12.9711C33.4999 13.096 33.7057 13.1635 33.917 13.1637C34.1068 13.1637 34.297 13.1089 34.4653 12.9988L36.5349 11.644L38.6046 12.9988C38.9553 13.2283 39.4008 13.2176 39.741 12.9708C40.0798 12.7244 40.2277 12.3038 40.1177 11.8996L39.4688 9.51258L41.3967 7.96307C41.7237 7.70022 41.8511 7.27278 41.7217 6.87465C41.5922 6.47563 41.2379 6.20459 40.819 6.18426L38.3483 6.06378L37.4703 3.75137V3.75117C37.3214 3.35925 36.9544 3.10597 36.5351 3.10597C36.1158 3.10597 35.7486 3.35925 35.5998 3.75117L34.7219 6.06378L32.2513 6.18426C31.8322 6.20459 31.4778 6.47563 31.3488 6.87386C31.2189 7.27249 31.3462 7.69982 31.6731 7.96297ZM35.1766 7.62207C35.3711 7.6127 35.5585 7.54678 35.716 7.4324C35.8735 7.31801 35.9942 7.16014 36.0633 6.97815L36.5348 5.73581L37.0066 6.97825C37.0756 7.16019 37.1963 7.31801 37.3537 7.43238C37.5111 7.54674 37.6985 7.61267 37.8929 7.62207L39.2201 7.6868L38.1843 8.51937C38.0325 8.64123 37.9197 8.80474 37.8595 8.98983C37.7994 9.17492 37.7946 9.37354 37.8457 9.56132L38.1943 10.8436L37.0831 10.1162C36.9203 10.0093 36.7298 9.95234 36.535 9.95227C36.3402 9.9522 36.1496 10.0091 35.9867 10.1158L34.875 10.8435L35.2237 9.56112C35.2747 9.37334 35.2698 9.17475 35.2097 8.9897C35.1495 8.80464 35.0367 8.64116 34.885 8.51927L33.8492 7.6868L35.1766 7.62207ZM9.41907 7.96297L11.3471 9.51258L10.6984 11.8989C10.588 12.3037 10.7359 12.7246 11.0753 12.9712C11.2459 13.0961 11.4517 13.1636 11.663 13.1639C11.8529 13.1639 12.0431 13.1091 12.2112 12.9989L14.2808 11.6441L16.3505 12.9989C16.7014 13.2286 17.1471 13.2178 17.4865 12.9712C17.8256 12.7249 17.9736 12.3042 17.8636 11.8997L17.2147 9.51268L19.1431 7.96278C19.4697 7.69992 19.597 7.27258 19.4676 6.87475C19.3381 6.47573 18.9838 6.20468 18.5648 6.18436L16.0942 6.06388L15.2162 3.75147V3.75127C15.0673 3.35935 14.7003 3.10607 14.281 3.10607C13.8613 3.10607 13.494 3.35965 13.3459 3.75127L12.4679 6.06388L9.99718 6.18436C9.57862 6.20468 9.2243 6.47543 9.09435 6.87475C8.965 7.27327 9.09248 7.70041 9.41907 7.96297ZM12.9225 7.62207C13.117 7.61276 13.3044 7.54686 13.4619 7.43247C13.6194 7.31807 13.7401 7.16017 13.8091 6.97815L14.2808 5.73591L14.7525 6.97825C14.8215 7.16019 14.9421 7.31801 15.0996 7.43238C15.257 7.54674 15.4444 7.61267 15.6388 7.62207L16.966 7.6868L15.9297 8.51957C15.7782 8.64157 15.6656 8.80506 15.6055 8.99006C15.5455 9.17505 15.5407 9.37353 15.5916 9.56122L15.9402 10.8435L14.829 10.1161C14.6662 10.0093 14.4757 9.95237 14.2809 9.9523C14.0862 9.95223 13.8956 10.009 13.7327 10.1157L12.621 10.8434L12.9696 9.56102C13.0207 9.37324 13.0158 9.17464 12.9556 8.98957C12.8955 8.8045 12.7826 8.64102 12.6309 8.51917L11.5951 7.6867L12.9225 7.62207ZM17.3427 20.1767C17.9349 19.5605 18.3003 18.7246 18.3003 17.8045C18.3003 15.9152 16.7632 14.3781 14.8739 14.3781C12.9846 14.3781 11.4475 15.9151 11.4475 17.8045C11.4475 18.7249 11.813 19.5611 12.4056 20.1773C10.8693 20.8651 9.66121 22.1853 9.13678 23.8788C8.94803 24.4881 9.05597 25.1308 9.43269 25.6419C9.80951 26.1531 10.3916 26.4462 11.0297 26.4462H17.6875V27.0659C17.6875 28.5284 18.8774 29.7182 20.3399 29.7182H30.476C31.9383 29.7182 33.1283 28.5284 33.1284 27.0659V26.4465H39.7863C40.4244 26.4465 41.0063 26.1533 41.3832 25.6422C41.76 25.131 41.8678 24.4883 41.6791 23.879C41.1547 22.1855 39.9465 20.8653 38.4103 20.1775C39.0029 19.5612 39.3684 18.725 39.3684 17.8047C39.3684 15.9154 37.8313 14.3783 35.942 14.3783C34.0527 14.3783 32.5156 15.9153 32.5156 17.8047C32.5156 18.7248 32.8809 19.5606 33.4731 20.1768C32.7274 20.5117 32.059 20.997 31.5096 21.6024C30.6526 20.5134 29.5192 19.6742 28.2276 19.1721C29.1419 18.3805 29.722 17.2127 29.722 15.9113C29.722 13.5326 27.7868 11.5972 25.408 11.5972C23.0291 11.5972 21.0938 13.5325 21.0938 15.9113C21.0938 17.2127 21.6739 18.3805 22.5882 19.1721C21.2966 19.6742 20.1633 20.5134 19.3062 21.6024C18.7569 20.997 18.0884 20.5116 17.3427 20.1767ZM14.8739 15.9568C15.8927 15.9568 16.7216 16.7856 16.7216 17.8045C16.7216 18.8233 15.8928 19.6521 14.8739 19.6521C13.8551 19.6521 13.0262 18.8233 13.0262 17.8045C13.0262 16.7856 13.8552 15.9568 14.8739 15.9568ZM10.7036 24.7052C10.6657 24.6544 10.6405 24.5952 10.6303 24.5326C10.6201 24.47 10.6251 24.4059 10.6448 24.3457C11.222 22.4825 12.9213 21.2308 14.8738 21.2308C16.2934 21.2308 17.5899 21.8914 18.4235 23.0152C18.1382 23.6038 17.9289 24.2262 17.8005 24.8675H11.0297C10.9663 24.8686 10.9035 24.8544 10.8468 24.8262C10.79 24.7979 10.7409 24.7564 10.7036 24.7052ZM34.0942 17.8047C34.0942 16.7859 34.9231 15.957 35.9419 15.957C36.9608 15.957 37.7896 16.7858 37.7896 17.8047C37.7896 18.8235 36.9608 19.6523 35.9419 19.6523C34.9231 19.6523 34.0942 18.8234 34.0942 17.8047ZM35.9419 21.231C37.8945 21.231 39.594 22.4828 40.1709 24.346C40.1906 24.4062 40.1956 24.4703 40.1854 24.5329C40.1752 24.5954 40.1501 24.6547 40.1123 24.7055C40.0749 24.7567 40.0258 24.7983 39.969 24.8265C39.9122 24.8548 39.8495 24.869 39.7861 24.8679H33.0153C32.8868 24.2265 32.6775 23.6041 32.3923 23.0154C33.2257 21.8916 34.5224 21.231 35.9419 21.231ZM25.408 13.1759C26.9162 13.1759 28.1433 14.403 28.1433 15.9113C28.1433 17.4196 26.9162 18.6466 25.408 18.6466C23.8997 18.6466 22.6726 17.4196 22.6726 15.9113C22.6726 14.403 23.8997 13.1759 25.408 13.1759ZM25.4079 20.2252C28.5614 20.2252 31.1945 22.5761 31.5495 25.7003V27.0659C31.5494 27.6579 31.0678 28.1396 30.4759 28.1396H20.3399C19.7479 28.1396 19.2662 27.658 19.2662 27.066V25.7003C19.6212 22.5761 22.2543 20.2252 25.4079 20.2252ZM48.5992 33.1006C48.1467 32.3451 46.2905 30.1015 41.4022 32.9486L32.8217 37.9463C32.4147 38.1833 32.0011 38.3542 31.5707 38.4605C31.7245 38.2013 31.846 37.9113 31.9313 37.5927C32.3736 35.9413 31.3926 34.2171 29.6977 33.6676C29.6638 33.6568 29.6293 33.6481 29.5943 33.6417C27.1307 33.1974 24.6982 32.3179 22.7436 31.6114C22.0637 31.3656 21.4216 31.1334 20.8753 30.9563C18.6676 30.2399 16.6753 31.1251 15.0171 32.0852L8.65774 35.767L7.97416 34.5591C7.70489 34.0831 7.26492 33.7402 6.73556 33.5936C6.2064 33.4469 5.65247 33.5144 5.17668 33.7839L2.76925 35.1464C1.78423 35.7039 1.43632 36.9588 1.9939 37.9439L9.07176 50.4501C9.44897 51.1167 10.1455 51.4914 10.8616 51.4914C11.2039 51.4914 11.5507 51.4058 11.8692 51.2255L14.2768 49.863C14.7527 49.5936 15.0956 49.1537 15.2423 48.6244C15.389 48.095 15.3215 47.5414 15.052 47.0654L14.4316 45.9692L15.8527 45.1487L26.8314 48.0904C27.4546 48.2574 28.0664 48.3408 28.665 48.3408C29.8586 48.3408 30.9996 48.0093 32.0735 47.3481L47.645 37.7598C49.077 36.8784 49.5318 34.6576 48.5992 33.1006ZM13.7212 48.2027C13.7049 48.2627 13.677 48.3189 13.6389 48.3681C13.6008 48.4172 13.5534 48.4583 13.4994 48.489L11.0918 49.8516C11.0377 49.8821 10.978 49.9017 10.9163 49.909C10.8545 49.9164 10.792 49.9114 10.7322 49.8944C10.6722 49.8782 10.616 49.8502 10.5668 49.8122C10.5177 49.7741 10.4766 49.7267 10.4458 49.6726L3.36787 37.1663C3.33734 37.1121 3.31783 37.0525 3.31048 36.9907C3.30313 36.929 3.30808 36.8664 3.32505 36.8066C3.34131 36.7466 3.36928 36.6904 3.40737 36.6413C3.44546 36.5921 3.4929 36.551 3.54696 36.5203L5.95439 35.1578C6.02457 35.118 6.10385 35.0972 6.18449 35.0972C6.22771 35.0972 6.27112 35.1031 6.31404 35.115C6.37405 35.1313 6.43024 35.1592 6.47937 35.1973C6.5285 35.2354 6.5696 35.2828 6.60028 35.3368L12.6747 46.0698C12.675 46.0704 12.6752 46.071 12.6756 46.0715L12.6763 46.0727L13.6782 47.843C13.74 47.952 13.7552 48.0798 13.7212 48.2027ZM46.8175 36.4155L31.2459 46.0038C30.018 46.7599 28.67 46.9491 27.2402 46.5654L15.9457 43.5391C15.8455 43.5123 15.7411 43.5054 15.6384 43.519C15.5356 43.5325 15.4365 43.5661 15.3467 43.618L13.6541 44.5951L9.43545 37.1411L15.8082 33.4515C17.2334 32.6263 18.7747 31.9345 20.3883 32.4582C20.9096 32.6272 21.5108 32.8444 22.2069 33.0962C24.2025 33.8176 26.6826 34.7141 29.2569 35.1851C30.1383 35.4941 30.6311 36.3453 30.4063 37.1843C30.1106 38.2878 29.1895 38.4259 28.4564 38.3418C27.1939 38.0822 25.9937 37.7396 24.7237 37.3769C24.1208 37.2048 23.4973 37.0267 22.8564 36.855C22.6542 36.8008 22.4387 36.8292 22.2574 36.9338C22.0761 37.0385 21.9438 37.2109 21.8896 37.4131C21.8354 37.6154 21.8638 37.8308 21.9685 38.0121C22.0732 38.1934 22.2456 38.3257 22.4478 38.3799C23.0762 38.5482 23.6933 38.7245 24.29 38.895C25.6001 39.2691 26.8375 39.6225 28.1705 39.8951C28.1756 39.8962 28.1808 39.8965 28.1858 39.8974C28.1912 39.8984 28.1964 39.9 28.2019 39.9009L29.2688 40.0744C30.8713 40.331 32.2932 40.081 33.616 39.3108L42.1965 34.3131C44.6516 32.8835 46.5387 32.7334 47.2447 33.9121C47.7305 34.7226 47.5149 35.9862 46.8175 36.4155ZM6.73487 37.7179C6.75237 37.8302 6.74746 37.9447 6.72042 38.055C6.69338 38.1654 6.64475 38.2692 6.57733 38.3606C6.50992 38.452 6.42506 38.5292 6.32766 38.5876C6.23025 38.646 6.12224 38.6845 6.00986 38.701C5.89747 38.7174 5.78295 38.7114 5.6729 38.6833C5.56285 38.6552 5.45946 38.6056 5.36871 38.5373C5.27795 38.469 5.20163 38.3834 5.14414 38.2854C5.08666 38.1875 5.04916 38.0791 5.03381 37.9666C5.00319 37.7421 5.06242 37.5146 5.19863 37.3336C5.33485 37.1525 5.53702 37.0326 5.7612 36.9998C5.98537 36.9671 6.21342 37.0241 6.39575 37.1586C6.57809 37.2931 6.69996 37.4941 6.73487 37.7179Z" fill="url(#paint0_linear_1_653)"/>
</g>
<defs>
<linearGradient id="paint0_linear_1_653" x1="1.73203" y1="26.2365" x2="49.078" y2="26.2365" gradientUnits="userSpaceOnUse">
<stop stop-color="#3CAB90"/>
<stop offset="1" stop-color="#0E6752"/>
</linearGradient>
<clipPath id="clip0_1_653">
<rect width="50.5188" height="50.5188" fill="white" transform="translate(0.148254 0.971832)"/>
</clipPath>
</defs>
</svg>
