<svg width="51" height="52" viewBox="0 0 51 52" fill="none" xmlns="http://www.w3.org/2000/svg">
<g clip-path="url(#clip0_1_667)">
<path d="M25.4074 51.3606C35.8533 51.3606 44.352 42.8619 44.352 32.416C44.352 24.4819 39.4468 17.6754 32.5116 14.8589V14.2608C32.5116 12.1491 30.6662 11.3513 29.2705 11.155C28.9043 9.62516 27.4089 8.99574 26.2029 8.80738V7.81674C27.8962 7.68157 29.2339 7.08817 30.1855 6.04622C31.8659 4.20623 31.6563 1.66697 31.6467 1.55981C31.6097 1.1532 31.2686 0.841797 30.8604 0.841797C28.7987 0.841797 27.2 1.44773 26.1085 2.64291C25.8301 2.9477 25.6077 3.27222 25.4236 3.60119C25.2395 3.27222 25.0171 2.9477 24.7387 2.64291C23.6473 1.44773 22.0484 0.841797 19.9868 0.841797C19.5786 0.841797 19.2375 1.1532 19.2005 1.55981C19.1909 1.66697 18.9812 4.20613 20.6617 6.04622C21.6094 7.08402 22.9408 7.67604 24.6243 7.81437V8.80551C23.4162 8.9913 21.9119 9.61983 21.5443 11.155C20.1486 11.3512 18.3032 12.149 18.3032 14.2608V14.8589C11.368 17.6755 6.46289 24.4819 6.46289 32.416C6.46289 42.8619 14.9615 51.3606 25.4074 51.3606ZM8.04841 32.6865L9.85308 34.0375C10.6042 34.6006 11.4488 35.0195 12.3661 35.2836L13.8669 35.7098C14.4586 35.8813 14.9141 36.3369 15.0841 36.9239L15.5474 38.5605C15.7663 39.3229 16.176 40.0197 16.7294 40.5731C17.8147 41.6693 19.2138 43.9995 16.9579 47.5799C11.718 44.6486 8.14698 39.0824 8.04841 32.6865ZM18.3756 48.2888C21.1982 43.6925 18.9891 40.6114 17.8484 39.4597C17.4757 39.0871 17.2124 38.638 17.0659 38.1277L16.6019 36.4893C16.2792 35.375 15.4209 34.5167 14.302 34.1926L12.7999 33.7659C12.0703 33.5559 11.3974 33.2225 10.7996 32.7738L8.12172 30.769C8.26321 29.2728 8.59307 27.8307 9.09115 26.4684C10.0281 26.3217 10.9343 26.4321 11.8854 26.5659C12.5621 26.6611 13.2656 26.7602 14.0052 26.7602C15.7932 26.7602 17.792 26.1817 20.1377 23.5731C21.6162 21.9288 22.2306 20.3413 21.9635 18.8547C21.7682 17.7688 21.0907 16.7731 19.9896 15.9201C21.3127 15.4843 22.7052 15.2048 24.1463 15.1008C24.2373 17.3631 24.3083 22.0833 23.487 24.5525C22.7505 26.7586 23.6947 27.5049 24.1349 27.723C24.3777 27.8437 24.6448 27.9018 24.9297 27.9018C26.1877 27.9018 27.7826 26.7651 29.0869 24.8554C29.2699 24.5871 29.5768 24.4206 29.8874 24.4206H33.0792C34.3661 24.4206 35.626 23.8988 36.5365 22.9888L38.4993 21.0259C40.4427 23.2568 41.8288 25.9845 42.4327 28.9935C34.996 28.0086 30.0923 28.3538 27.8616 30.0278C26.3569 31.1564 25.5059 32.4267 25.3328 33.8035C25.1316 35.403 25.8859 36.7297 26.5543 37.5611C26.6529 37.6836 26.6525 37.8659 26.5539 38.0043L25.7255 39.1663C24.6109 40.7254 24.2235 42.6879 24.6626 44.5499L25.8916 49.7694C25.7303 49.7739 25.5696 49.7818 25.4072 49.7818C22.9051 49.7819 20.5269 49.2456 18.3756 48.2888ZM24.9849 25.0516C25.8748 22.3769 25.8306 17.6475 25.7248 15.0582C30.2523 15.1401 34.36 16.9616 37.4096 19.8833L35.4204 21.8722C34.8041 22.4885 33.9507 22.8419 33.0793 22.8419H29.8875C29.0504 22.8419 28.2637 23.2617 27.7835 23.9651C26.4233 25.9573 25.0797 26.4318 24.8454 26.3158C24.8027 26.265 24.7016 25.9011 24.9849 25.0516ZM27.4858 49.6531L26.1991 44.1881C25.8645 42.7689 26.1601 41.2731 27.0108 40.0836L27.8394 38.9208C28.3471 38.2093 28.3243 37.2434 27.7847 36.572C27.3079 35.9788 26.7672 35.0511 26.8993 34.0005C27.0168 33.0643 27.6594 32.1527 28.8091 31.2905C30.6892 29.8816 35.6067 29.6489 42.6804 30.6206C42.7413 31.211 42.7731 31.8098 42.7731 32.4159C42.7733 41.2878 36.0844 48.6222 27.4858 49.6531ZM27.2828 3.69779C27.925 3.00019 28.8546 2.58548 30.0525 2.46057C29.9823 3.15471 29.7476 4.19034 29.011 4.99124C28.3689 5.68884 27.4392 6.10354 26.2414 6.22846C26.3116 5.53432 26.5464 4.49869 27.2828 3.69779ZM21.836 4.99124C21.099 4.19034 20.8647 3.15392 20.7945 2.46057C21.9925 2.58548 22.922 3.00019 23.5642 3.69779C24.3008 4.49869 24.5355 5.53432 24.6056 6.22846C23.4078 6.10364 22.4781 5.68893 21.836 4.99124ZM19.8819 14.2608C19.8819 12.7149 22.1556 12.6829 22.25 12.6821C22.6859 12.6821 23.0394 12.3287 23.0394 11.8928C23.0394 10.3468 25.313 10.3149 25.4052 10.3141C25.5019 10.3149 27.7755 10.3468 27.7755 11.8928C27.7755 12.3267 28.1285 12.6795 28.5626 12.6821C28.6593 12.6829 30.9329 12.7149 30.9329 14.2608V14.2957C29.1839 13.7612 27.3291 13.4715 25.4074 13.4715C23.4857 13.4715 21.631 13.7613 19.8819 14.2957V14.2608ZM18.2051 16.6204C19.1636 17.1738 20.2087 18.0162 20.4099 19.1342C20.5864 20.1163 20.0996 21.2544 18.9638 22.5179C16.2111 25.5801 14.3086 25.3138 12.1051 25.0028C11.362 24.8986 10.6027 24.7924 9.79979 24.8098C11.5653 21.2017 14.5463 18.2954 18.2051 16.6204Z" fill="url(#paint0_linear_1_667)"/>
<path d="M23.2893 31.8859C23.2422 31.6019 23.1093 31.3437 22.905 31.1394L21.4522 29.6867C21.1924 29.4269 20.8475 29.2839 20.4802 29.2839H18.2516C17.6195 29.2839 17.071 29.7122 16.9176 30.3258L16.5326 31.8671C16.4046 32.3754 16.5823 32.9213 16.9859 33.2577L20.0539 35.8143C20.3006 36.0201 20.6132 36.1334 20.9346 36.1334H22.3738C22.7789 36.1334 23.1616 35.9561 23.4238 35.6465C23.685 35.3374 23.7968 34.9312 23.7301 34.5323L23.2893 31.8859ZM21.0087 34.5546L18.0949 32.1268L18.411 30.8626H20.3959L21.7429 32.2097L22.1334 34.5547H21.0087V34.5546Z" fill="url(#paint1_linear_1_667)"/>
</g>
<defs>
<linearGradient id="paint0_linear_1_667" x1="6.46614" y1="26.106" x2="44.3454" y2="26.106" gradientUnits="userSpaceOnUse">
<stop stop-color="#3CAB90"/>
<stop offset="1" stop-color="#0E6752"/>
</linearGradient>
<linearGradient id="paint1_linear_1_667" x1="16.4923" y1="32.7093" x2="23.7478" y2="32.7093" gradientUnits="userSpaceOnUse">
<stop stop-color="#3CAB90"/>
<stop offset="1" stop-color="#0E6752"/>
</linearGradient>
<clipPath id="clip0_1_667">
<rect width="50.5188" height="50.5188" fill="white" transform="translate(0.148254 0.848511)"/>
</clipPath>
</defs>
</svg>
