<svg width="29" height="29" viewBox="0 0 29 29" fill="none" xmlns="http://www.w3.org/2000/svg">
<path d="M14.2502 24.6497C20.6806 24.6497 25.8935 19.4369 25.8935 13.0065C25.8935 6.57613 20.6806 1.36328 14.2502 1.36328C7.81985 1.36328 2.60699 6.57613 2.60699 13.0065C2.60699 19.4369 7.81985 24.6497 14.2502 24.6497Z" fill="#AFFF9D"/>
<path d="M21.8185 13.0061C21.8185 8.52346 17.9762 4.97227 13.3771 5.49622C9.88418 5.90373 7.0898 8.6981 6.74051 12.1911C6.44943 14.869 7.55553 17.2559 9.41845 18.7695C10.2335 19.4681 10.7574 20.4578 10.7574 21.5639V21.7385H17.7434V21.6803C17.7434 20.6324 18.2091 19.5845 19.0241 18.8859C20.7124 17.4887 21.8185 15.393 21.8185 13.0061Z" fill="#65F93C"/>
<path d="M18.0922 11.9582L16.3457 10.7939C16.171 10.6774 15.8799 10.6774 15.7053 10.7939L14.2499 11.7253L12.8527 10.7939C12.678 10.6774 12.387 10.6774 12.2123 10.7939L10.4658 11.9582C10.3494 12.0746 10.233 12.1911 10.233 12.3657C10.233 12.5404 10.233 12.715 10.3494 12.8314L12.5616 15.5676V21.7385H13.7259V15.3347C13.7259 15.2183 13.6677 15.1019 13.6095 14.9854L11.6884 12.5986L12.5616 12.0164L13.9588 12.9479C14.1335 13.0643 14.4245 13.0643 14.5992 12.9479L15.9964 12.0164L16.8696 12.5986L14.9485 14.9854C14.8903 15.1019 14.832 15.2183 14.832 15.3347V21.7385H15.9964V15.5676L18.2086 12.8314C18.325 12.715 18.3832 12.5404 18.325 12.3657C18.2668 12.1911 18.2086 12.0164 18.0922 11.9582Z" fill="#D2C7B2"/>
<path d="M14.2504 27.5604C15.2149 27.5604 15.9969 26.7784 15.9969 25.8139C15.9969 24.8493 15.2149 24.0674 14.2504 24.0674C13.2858 24.0674 12.5039 24.8493 12.5039 25.8139C12.5039 26.7784 13.2858 27.5604 14.2504 27.5604Z" fill="#5C6BC0"/>
<path d="M15.4148 26.3962H13.0862C11.8054 26.3962 10.7575 25.3483 10.7575 24.0675V21.1567H17.7434V24.0675C17.7434 25.3483 16.6956 26.3962 15.4148 26.3962Z" fill="#9FA8DA"/>
<path d="M17.7434 24.0674L10.9904 24.9989C11.165 25.4064 11.5143 25.8139 11.9218 26.0468L17.3941 25.29C17.627 24.9407 17.7434 24.5331 17.7434 24.0674ZM10.7575 22.7284V23.8928L17.7434 22.9031V21.7388L10.7575 22.7284Z" fill="#5C6BC0"/>
</svg>
