<svg width="245" height="327" viewBox="0 0 245 327" fill="none" xmlns="http://www.w3.org/2000/svg">
<path d="M102.074 205.21C101.77 203.373 100.91 201.703 99.5888 200.382L90.1953 190.989C88.5154 189.309 86.2848 188.385 83.9095 188.385H69.4991C65.412 188.385 61.8652 191.154 60.8731 195.121L58.3835 205.088C57.556 208.375 58.7051 211.905 61.3146 214.08L81.1532 230.611C82.7483 231.942 84.7695 232.675 86.8482 232.675H96.1544C98.7735 232.675 101.248 231.528 102.944 229.527C104.633 227.528 105.356 224.901 104.925 222.321L102.074 205.21ZM87.3274 222.466L68.486 206.767L70.5296 198.593H83.3646L92.0749 207.303L94.5995 222.466H87.3274V222.466Z" fill="#7ED570"/>
<path d="M122.5 326.667C190.045 326.667 245 271.712 245 204.167C245 152.863 213.282 108.85 168.438 90.6379V86.7708C168.438 73.1159 156.505 67.9569 147.48 66.6879C145.111 56.7953 135.442 52.7254 127.644 51.5074V45.1017C138.593 44.2276 147.243 40.3905 153.396 33.653C164.262 21.7552 162.906 5.33577 162.845 4.64288C162.605 2.01359 160.4 0 157.76 0C144.429 0 134.091 3.91809 127.033 11.6464C125.233 13.6173 123.795 15.7157 122.605 17.8429C121.414 15.7157 119.976 13.6173 118.176 11.6464C111.118 3.91809 100.78 0 87.449 0C84.8095 0 82.6039 2.01359 82.3647 4.64288C82.3021 5.33577 80.9464 21.7546 91.8131 33.653C97.9413 40.3638 106.55 44.1919 117.436 45.0864V51.4953C109.624 52.6967 99.8968 56.7609 97.5202 66.6879C88.4954 67.9562 76.5625 73.1153 76.5625 86.7708V90.6379C31.7179 108.851 0 152.863 0 204.167C0 271.712 54.954 326.667 122.5 326.667ZM10.2524 205.915L21.9218 214.651C26.779 218.292 32.2398 221.001 38.1715 222.709L47.8764 225.465C51.702 226.574 54.6478 229.52 55.7471 233.316L58.7426 243.898C60.1583 248.828 62.8074 253.334 66.3861 256.912C73.4037 264.001 82.4508 279.068 67.8631 302.22C33.981 283.265 10.8897 247.273 10.2524 205.915ZM77.0302 306.804C95.282 277.083 80.9974 257.16 73.6212 249.713C71.2114 247.303 69.5092 244.4 68.5617 241.1L65.5611 230.505C63.4748 223.3 57.9246 217.75 50.6895 215.654L40.9769 212.895C36.2587 211.537 31.9074 209.381 28.0423 206.48L10.7264 193.517C11.6413 183.842 13.7742 174.517 16.995 165.708C23.0536 164.759 28.9132 165.473 35.0631 166.338C39.4393 166.954 43.9877 167.595 48.7703 167.595C60.3319 167.595 73.2569 163.854 88.4246 146.986C97.9847 136.354 101.958 126.088 100.231 116.476C98.9679 109.454 94.5872 103.015 87.4669 97.4998C96.0228 94.6823 105.027 92.8748 114.345 92.2023C114.934 106.831 115.393 137.352 110.082 153.319C105.319 167.584 111.425 172.41 114.271 173.82C115.842 174.601 117.569 174.977 119.411 174.977C127.545 174.977 137.858 167.627 146.292 155.278C147.476 153.543 149.46 152.467 151.469 152.467H172.107C180.429 152.467 188.576 149.092 194.463 143.208L207.155 130.515C219.722 144.941 228.685 162.579 232.589 182.036C184.502 175.667 152.793 177.899 138.369 188.724C128.64 196.022 123.137 204.236 122.018 213.139C120.717 223.481 125.594 232.06 129.916 237.436C130.554 238.228 130.551 239.407 129.913 240.302L124.557 247.816C117.349 257.897 114.844 270.587 117.684 282.627L125.631 316.378C124.588 316.407 123.549 316.458 122.499 316.458C106.319 316.458 90.9416 312.991 77.0302 306.804ZM119.768 156.547C125.522 139.251 125.236 108.67 124.552 91.9267C153.828 92.4562 180.39 104.235 200.109 123.127L187.246 135.988C183.261 139.973 177.743 142.258 172.108 142.258H151.469C146.056 142.258 140.969 144.972 137.864 149.521C129.069 162.403 120.381 165.471 118.866 164.721C118.59 164.392 117.936 162.039 119.768 156.547ZM135.939 315.626L127.619 280.288C125.455 271.111 127.367 261.439 132.868 253.747L138.226 246.228C141.509 241.627 141.361 235.382 137.872 231.04C134.789 227.204 131.293 221.206 132.147 214.412C132.907 208.358 137.062 202.464 144.496 196.889C156.653 187.778 188.451 186.274 234.191 192.557C234.585 196.374 234.79 200.247 234.79 204.166C234.792 261.534 191.54 308.96 135.939 315.626ZM134.627 18.4675C138.779 13.9567 144.791 11.2751 152.536 10.4674C152.082 14.9558 150.565 21.6525 145.802 26.8313C141.65 31.3421 135.638 34.0237 127.893 34.8315C128.347 30.343 129.865 23.6463 134.627 18.4675ZM99.4062 26.8313C94.6408 21.6525 93.1255 14.9507 92.6719 10.4674C100.418 11.2751 106.429 13.9567 110.581 18.4675C115.344 23.6463 116.862 30.343 117.315 34.8315C109.57 34.0244 103.558 31.3428 99.4062 26.8313ZM86.7708 86.7708C86.7708 76.7743 101.473 76.5676 102.083 76.5625C104.902 76.5625 107.188 74.2771 107.188 71.4583C107.188 61.4618 121.889 61.2551 122.485 61.25C123.111 61.2551 137.812 61.4618 137.812 71.4583C137.812 74.2643 140.095 76.5453 142.902 76.5625C143.527 76.5676 158.229 76.7743 158.229 86.7708V86.996C146.92 83.5399 134.926 81.6667 122.5 81.6667C110.074 81.6667 98.0804 83.5405 86.7708 86.996V86.7708ZM75.9277 102.028C82.126 105.606 88.884 111.054 90.1849 118.283C91.3263 124.634 88.1783 131.993 80.834 140.163C63.0345 159.964 50.7322 158.242 36.4839 156.231C31.679 155.557 26.7688 154.871 21.5772 154.983C32.9933 131.652 52.2692 112.859 75.9277 102.028Z" fill="url(#paint0_linear_1_623)"/>
<defs>
<linearGradient id="paint0_linear_1_623" x1="0.0210176" y1="163.364" x2="244.957" y2="163.364" gradientUnits="userSpaceOnUse">
<stop stop-color="#3CAB90"/>
<stop offset="1" stop-color="#0E6752"/>
</linearGradient>
</defs>
</svg>
