<svg width="18" height="19" viewBox="0 0 18 19" fill="none" xmlns="http://www.w3.org/2000/svg">
<path d="M14.9548 6.72044L9.01973 10.4298L3.08471 6.72044V5.23669L9.01973 8.94607L14.9548 5.23669M14.9548 3.75293H3.08471C2.26122 3.75293 1.60095 4.4132 1.60095 5.23669V14.1392C1.60095 14.5327 1.75728 14.9101 2.03553 15.1884C2.31379 15.4666 2.69119 15.623 3.08471 15.623H14.9548C15.3483 15.623 15.7257 15.4666 16.0039 15.1884C16.2822 14.9101 16.4385 14.5327 16.4385 14.1392V5.23669C16.4385 4.84317 16.2822 4.46577 16.0039 4.18751C15.7257 3.90925 15.3483 3.75293 14.9548 3.75293Z" fill="#EDEDED"/>
</svg>
