<svg width="21" height="21" viewBox="0 0 21 21" fill="none" xmlns="http://www.w3.org/2000/svg">
<g clip-path="url(#clip0_1_824)">
<path fill-rule="evenodd" clip-rule="evenodd" d="M14.5651 18.6573C13.3506 18.6126 9.90862 18.1369 6.30386 14.533C2.69995 10.9282 2.2251 7.48706 2.17956 6.2717C2.11209 4.41956 3.53071 2.62056 5.16947 1.91799C5.36681 1.83278 5.58291 1.80033 5.79657 1.82384C6.01023 1.84736 6.21411 1.92601 6.3882 2.05209C7.73767 3.03552 8.6688 4.5233 9.46835 5.69312C9.64428 5.95013 9.71949 6.26288 9.67968 6.57178C9.63986 6.88068 9.48779 7.16414 9.25244 7.36814L7.60694 8.59025C7.52744 8.64766 7.47148 8.73197 7.44945 8.82752C7.42742 8.92307 7.44083 9.02338 7.48717 9.10979C7.85996 9.78705 8.52288 10.7958 9.28196 11.5549C10.0419 12.3139 11.0978 13.0207 11.8223 13.4357C11.9132 13.4867 12.0201 13.5009 12.1211 13.4755C12.2221 13.4501 12.3096 13.3869 12.3655 13.299L13.4366 11.6687C13.6335 11.4071 13.9241 11.2319 14.2473 11.1797C14.5705 11.1275 14.9014 11.2024 15.1707 11.3887C16.3574 12.2102 17.7423 13.1253 18.756 14.4233C18.8924 14.5987 18.9791 14.8074 19.0071 15.0277C19.0352 15.2481 19.0035 15.4719 18.9154 15.6758C18.2095 17.323 16.4232 18.7256 14.5651 18.6573Z" fill="#EDEDED"/>
</g>
<defs>
<clipPath id="clip0_1_824">
<rect width="20.242" height="20.242" fill="white" transform="translate(0.60675 -0.00976562)"/>
</clipPath>
</defs>
</svg>
