<svg width="51" height="51" viewBox="0 0 51 51" fill="none" xmlns="http://www.w3.org/2000/svg">
<g clip-path="url(#clip0_1_658)">
<path d="M50.5744 37.0599L44.0493 12.7093C43.9372 12.2899 43.7251 11.904 43.431 11.5847C43.137 11.2654 42.7698 11.0222 42.3611 10.876L34.508 8.06492L34.3284 7.68603C34.198 7.4107 34.0219 7.15948 33.8075 6.94305L37.0724 1.2883C37.121 1.20408 37.1525 1.11111 37.1652 1.0147C37.1779 0.918294 37.1714 0.820337 37.1462 0.726423C37.121 0.63251 37.0776 0.544478 37.0184 0.467356C36.9591 0.390233 36.8853 0.325529 36.8011 0.276939C36.631 0.178806 36.4289 0.152263 36.2392 0.203149C36.0495 0.254036 35.8879 0.378183 35.7897 0.54828L32.5257 6.20303C32.2315 6.12716 31.9268 6.10049 31.6239 6.12409L18.2206 7.22524C17.7787 7.26166 17.3521 7.40464 16.9775 7.64195C16.6029 7.87927 16.2914 8.20383 16.0696 8.58787L0.517355 35.5256C0.336716 35.8376 0.219375 36.1822 0.172047 36.5396C0.124718 36.897 0.148333 37.2602 0.241538 37.6084C0.334743 37.9567 0.495709 38.2832 0.715224 38.5691C0.934739 38.8551 1.20849 39.095 1.52082 39.2751L20.6716 50.33C20.9836 50.5104 21.3282 50.6275 21.6855 50.6747C22.0429 50.7219 22.406 50.6982 22.7542 50.605C23.1024 50.5118 23.4288 50.351 23.7148 50.1316C24.0008 49.9122 24.2408 49.6387 24.421 49.3265L28.2494 42.6959L28.3352 43.0186C28.426 43.3595 28.5832 43.6791 28.7978 43.9591C29.0123 44.2391 29.28 44.474 29.5855 44.6504C29.891 44.8268 30.2284 44.9411 30.5781 44.9868C30.9279 45.0326 31.2833 45.0088 31.6239 44.917L48.676 40.3486C49.3637 40.1641 49.95 39.714 50.306 39.0973C50.662 38.4806 50.7585 37.7478 50.5744 37.0599ZM41.8618 12.2702C42.0455 12.3357 42.2105 12.4448 42.3427 12.5881C42.4749 12.7315 42.5702 12.9048 42.6206 13.0931L47.4317 31.051L32.6915 34.9977L39.9723 22.3858C40.1943 22.0019 40.3198 21.5699 40.338 21.1268C40.3562 20.6838 40.2666 20.2429 40.0769 19.8421L35.4029 9.9574L41.8618 12.2702ZM23.1383 48.5865C22.9706 48.8762 22.6948 49.0875 22.3714 49.174C22.0481 49.2606 21.7036 49.2154 21.4136 49.0483L2.26084 37.9904C1.97098 37.8228 1.75952 37.547 1.67293 37.2236C1.58634 36.9002 1.63171 36.5556 1.79907 36.2656L17.3514 9.32888C17.453 9.15243 17.5958 9.0032 17.7676 8.89393C17.9394 8.78465 18.1352 8.71858 18.3381 8.70134L31.7226 7.60216L28.4665 13.248C28.1689 13.1582 27.8597 13.1127 27.5488 13.1128C26.8011 13.109 26.0753 13.366 25.4968 13.8398C24.9182 14.3135 24.523 14.9743 24.3793 15.7081C24.2356 16.442 24.3524 17.203 24.7096 17.86C25.0667 18.5169 25.6419 19.0288 26.3359 19.3072C27.03 19.5856 27.7994 19.6132 28.5116 19.3852C29.2238 19.1572 29.8341 18.6879 30.2374 18.0582C30.6408 17.4285 30.8118 16.6779 30.721 15.9356C30.6303 15.1933 30.2834 14.506 29.7403 13.992L32.9964 8.34317L38.734 20.4795C38.8214 20.6641 38.8626 20.8671 38.8542 21.0711C38.8458 21.2751 38.788 21.474 38.6857 21.6507L23.1383 48.5865ZM29.2677 16.3216C29.2677 16.6631 29.1664 16.9969 28.9767 17.2809C28.7869 17.5648 28.5173 17.7862 28.2017 17.9169C27.8862 18.0476 27.539 18.0817 27.2041 18.0151C26.8691 17.9485 26.5615 17.784 26.32 17.5426C26.0785 17.3011 25.914 16.9934 25.8474 16.6584C25.7808 16.3235 25.815 15.9763 25.9457 15.6608C26.0764 15.3453 26.2977 15.0756 26.5816 14.8859C26.8656 14.6961 27.1994 14.5949 27.541 14.5949C27.9984 14.5954 28.437 14.7772 28.7607 15.1005C29.0843 15.4238 29.2666 15.8622 29.2677 16.3196V16.3216ZM49.0243 38.3574C48.9454 38.4947 48.84 38.615 48.7144 38.7114C48.5887 38.8078 48.4452 38.8783 48.2921 38.9189L31.2401 43.4882C31.0869 43.5299 30.927 43.5408 30.7696 43.5204C30.6122 43.5001 30.4604 43.4488 30.3229 43.3696C30.1853 43.2904 30.0648 43.1848 29.9682 43.0588C29.8716 42.9329 29.8009 42.7891 29.76 42.6357L29.2904 40.8834L31.6407 36.8123L47.8106 32.4797L49.1407 37.4428C49.1828 37.5953 49.1942 37.7548 49.1742 37.9118C49.1542 38.0688 49.1032 38.2203 49.0243 38.3574Z" fill="url(#paint0_linear_1_658)"/>
<path d="M31.2423 24.5621L18.5534 17.2359C18.2414 17.0553 17.8968 16.938 17.5393 16.8907C17.1819 16.8435 16.8186 16.8672 16.4704 16.9605C16.1221 17.0538 15.7957 17.2148 15.5097 17.4344C15.2238 17.6541 14.984 17.9279 14.804 18.2403L5.75796 33.912C5.57762 34.2241 5.46055 34.5687 5.41343 34.9261C5.36632 35.2835 5.39008 35.6466 5.48336 35.9948C5.57664 36.343 5.73761 36.6694 5.95707 36.9554C6.17654 37.2413 6.4502 37.4813 6.76242 37.6614L19.4513 44.9876C19.8665 45.2286 20.3378 45.3559 20.8179 45.3567C21.0593 45.3551 21.2995 45.322 21.5323 45.258C21.8806 45.1657 22.2071 45.0053 22.493 44.786C22.7789 44.5666 23.0185 44.2928 23.1978 43.9802L32.2458 28.3076C32.6086 27.6776 32.7066 26.9295 32.5185 26.2273C32.3304 25.5251 31.8714 24.9263 31.2423 24.5621ZM30.9641 27.5685L21.9161 43.2412C21.7485 43.531 21.4727 43.7425 21.1493 43.8291C20.8259 43.9157 20.4813 43.8703 20.1913 43.703L7.50244 36.3767C7.35873 36.294 7.23276 36.1837 7.13171 36.0521C7.03067 35.9206 6.95654 35.7705 6.91356 35.6103C6.87058 35.4501 6.8596 35.283 6.88124 35.1186C6.90288 34.9542 6.95672 34.7956 7.03968 34.652L16.0877 18.9803C16.1701 18.8358 16.2804 18.709 16.4121 18.6073C16.5439 18.5057 16.6945 18.4313 16.8553 18.3883C16.9625 18.3598 17.073 18.3452 17.1839 18.3449C17.405 18.3449 17.6222 18.4035 17.8134 18.5146L30.5023 25.8408C30.7922 26.0084 31.0036 26.2842 31.0902 26.6076C31.1768 26.931 31.1314 27.2756 30.9641 27.5656V27.5685Z" fill="url(#paint1_linear_1_658)"/>
<path d="M24.8158 28.7853L12.8018 32.0059C12.6279 32.052 12.4768 32.1598 12.3766 32.3092C12.2765 32.4586 12.2341 32.6394 12.2576 32.8178C12.2811 32.9961 12.3687 33.1598 12.5041 33.2783C12.6395 33.3967 12.8134 33.4618 12.9933 33.4613C13.0579 33.4609 13.1222 33.4523 13.1847 33.4356L25.2026 30.2151C25.3922 30.1638 25.5537 30.0393 25.6515 29.8689C25.7493 29.6986 25.7754 29.4964 25.7241 29.3068C25.6728 29.1172 25.5483 28.9558 25.378 28.858C25.2076 28.7602 25.0054 28.7341 24.8158 28.7853Z" fill="url(#paint2_linear_1_658)"/>
<path d="M16.1423 27.2664C16.3125 27.3641 16.5145 27.3904 16.704 27.3396C16.8936 27.2887 17.0552 27.1648 17.1537 26.995L18.0338 25.4716C18.0824 25.3874 18.1139 25.2944 18.1266 25.198C18.1392 25.1016 18.1328 25.0036 18.1076 24.9097C18.0824 24.8158 18.0389 24.7278 17.9797 24.6506C17.9205 24.5735 17.8467 24.5088 17.7625 24.4602C17.6782 24.4116 17.5853 24.3801 17.4889 24.3674C17.3925 24.3548 17.2945 24.3612 17.2006 24.3864C17.1067 24.4116 17.0186 24.4551 16.9415 24.5143C16.8644 24.5735 16.7997 24.6473 16.7511 24.7316L15.871 26.255C15.773 26.4252 15.7465 26.6272 15.7974 26.8168C15.8483 27.0065 15.9723 27.1681 16.1423 27.2664Z" fill="url(#paint3_linear_1_658)"/>
<path d="M21.862 34.954C21.7778 34.9053 21.6849 34.8738 21.5886 34.8611C21.4922 34.8484 21.3943 34.8549 21.3005 34.8801C21.2067 34.9053 21.1187 34.9488 21.0417 35.008C20.9646 35.0672 20.9 35.1411 20.8516 35.2253L19.9715 36.7488C19.9229 36.833 19.8913 36.926 19.8787 37.0224C19.866 37.1188 19.8725 37.2167 19.8977 37.3106C19.9229 37.4046 19.9663 37.4926 20.0255 37.5697C20.0847 37.6468 20.1586 37.7115 20.2428 37.7601C20.327 37.8087 20.42 37.8402 20.5164 37.8529C20.6128 37.8656 20.7108 37.8591 20.8047 37.8339C20.8986 37.8087 20.9866 37.7653 21.0637 37.7061C21.1409 37.6468 21.2056 37.573 21.2542 37.4888L22.1343 35.9653C22.2322 35.7951 22.2585 35.5929 22.2074 35.4033C22.1564 35.2136 22.0321 35.052 21.862 34.954Z" fill="url(#paint4_linear_1_658)"/>
</g>
<defs>
<linearGradient id="paint0_linear_1_658" x1="0.152649" y1="25.4429" x2="50.6569" y2="25.4429" gradientUnits="userSpaceOnUse">
<stop stop-color="#3CAB90"/>
<stop offset="1" stop-color="#0E6752"/>
</linearGradient>
<linearGradient id="paint1_linear_1_658" x1="5.39223" y1="31.1146" x2="32.6073" y2="31.1146" gradientUnits="userSpaceOnUse">
<stop stop-color="#3CAB90"/>
<stop offset="1" stop-color="#0E6752"/>
</linearGradient>
<linearGradient id="paint2_linear_1_658" x1="12.2524" y1="31.1109" x2="25.7474" y2="31.1109" gradientUnits="userSpaceOnUse">
<stop stop-color="#3CAB90"/>
<stop offset="1" stop-color="#0E6752"/>
</linearGradient>
<linearGradient id="paint3_linear_1_658" x1="15.7723" y1="25.8633" x2="18.1325" y2="25.8633" gradientUnits="userSpaceOnUse">
<stop stop-color="#3CAB90"/>
<stop offset="1" stop-color="#0E6752"/>
</linearGradient>
<linearGradient id="paint4_linear_1_658" x1="19.8726" y1="36.3573" x2="22.2325" y2="36.3573" gradientUnits="userSpaceOnUse">
<stop stop-color="#3CAB90"/>
<stop offset="1" stop-color="#0E6752"/>
</linearGradient>
<clipPath id="clip0_1_658">
<rect width="50.5188" height="50.5188" fill="white" transform="translate(0.148254 0.178528)"/>
</clipPath>
</defs>
</svg>
