<svg width="24" height="24" viewBox="0 0 24 24" fill="none" xmlns="http://www.w3.org/2000/svg">
<path d="M12.6507 2.56369C13.3541 2.56099 14.0575 2.56806 14.7607 2.58489L14.9477 2.59164C15.1636 2.59935 15.3766 2.60899 15.634 2.62056C16.6596 2.66875 17.3593 2.83069 17.9734 3.06877C18.6095 3.3136 19.1455 3.64519 19.6814 4.18112C20.1714 4.66269 20.5507 5.24521 20.7928 5.88819C21.0309 6.50219 21.1928 7.20295 21.241 8.22854C21.2526 8.48494 21.2622 8.69893 21.2699 8.91484L21.2757 9.10184C21.2928 9.80471 21.3002 10.5078 21.2979 11.2109L21.2988 11.9299V13.1926C21.3012 13.896 21.2938 14.5994 21.2767 15.3026L21.2709 15.4896C21.2632 15.7055 21.2535 15.9186 21.242 16.1759C21.1938 17.2015 21.0299 17.9013 20.7928 18.5153C20.5515 19.159 20.1721 19.742 19.6814 20.2234C19.1994 20.7133 18.6166 21.0926 17.9734 21.3347C17.3593 21.5728 16.6596 21.7348 15.634 21.7829C15.3766 21.7945 15.1636 21.8042 14.9477 21.8119L14.7607 21.8176C14.0575 21.8348 13.3541 21.8422 12.6507 21.8398L11.9316 21.8408H10.6699C9.96646 21.8432 9.26307 21.8358 8.55988 21.8186L8.37288 21.8128C8.14406 21.8045 7.91529 21.7949 7.68658 21.7839C6.66099 21.7357 5.96119 21.5719 5.34622 21.3347C4.703 21.0931 4.12037 20.7138 3.63915 20.2234C3.14857 19.7417 2.76896 19.1588 2.52681 18.5153C2.28872 17.9013 2.12679 17.2015 2.07859 16.1759C2.06786 15.9472 2.05822 15.7184 2.04968 15.4896L2.04486 15.3026C2.02709 14.5994 2.01905 13.8961 2.02076 13.1926V11.2109C2.01807 10.5078 2.02514 9.80472 2.04196 9.10184L2.04871 8.91484C2.05642 8.69893 2.06606 8.48494 2.07763 8.22854C2.12582 7.20199 2.28776 6.50316 2.52584 5.88819C2.76814 5.2449 3.14849 4.66253 3.64012 4.18208C4.121 3.69121 4.70326 3.31126 5.34622 3.06877C5.96119 2.83069 6.66002 2.66875 7.68658 2.62056L8.37288 2.59164L8.55988 2.58682C9.26274 2.56906 9.96581 2.56102 10.6689 2.56272L12.6507 2.56369ZM11.6598 7.3832C11.0212 7.37417 10.3872 7.49215 9.79461 7.73027C9.20203 7.9684 8.66267 8.32193 8.2079 8.77031C7.75313 9.21869 7.39201 9.75299 7.14553 10.3422C6.89905 10.9313 6.77212 11.5636 6.77212 12.2022C6.77212 12.8409 6.89905 13.4732 7.14553 14.0623C7.39201 14.6515 7.75313 15.1858 8.2079 15.6342C8.66267 16.0825 9.20203 16.4361 9.79461 16.6742C10.3872 16.9123 11.0212 17.0303 11.6598 17.0213C12.938 17.0213 14.1639 16.5135 15.0677 15.6097C15.9715 14.7058 16.4793 13.48 16.4793 12.2018C16.4793 10.9235 15.9715 9.69767 15.0677 8.79384C14.1639 7.89001 12.938 7.3832 11.6598 7.3832ZM11.6598 9.31101C12.0439 9.30393 12.4256 9.37347 12.7825 9.51555C13.1395 9.65764 13.4645 9.86944 13.7387 10.1386C14.0129 10.4077 14.2307 10.7287 14.3794 11.083C14.5281 11.4372 14.6047 11.8176 14.6048 12.2017C14.6048 12.5859 14.5283 12.9663 14.3798 13.3206C14.2312 13.6749 14.0135 13.996 13.7394 14.2652C13.4653 14.5344 13.1403 14.7463 12.7834 14.8885C12.4265 15.0307 12.0449 15.1004 11.6608 15.0935C10.8938 15.0935 10.1583 14.7888 9.61601 14.2465C9.07371 13.7042 8.76904 12.9687 8.76904 12.2018C8.76904 11.4348 9.07371 10.6993 9.61601 10.157C10.1583 9.6147 10.8938 9.31004 11.6608 9.31004L11.6598 9.31101ZM16.7203 5.93735C16.4093 5.94979 16.1152 6.08208 15.8996 6.30649C15.684 6.53091 15.5636 6.83005 15.5636 7.14126C15.5636 7.45247 15.684 7.75161 15.8996 7.97603C16.1152 8.20045 16.4093 8.33273 16.7203 8.34518C17.0398 8.34518 17.3463 8.21823 17.5723 7.99228C17.7982 7.76632 17.9252 7.45985 17.9252 7.1403C17.9252 6.82074 17.7982 6.51428 17.5723 6.28832C17.3463 6.06236 17.0398 5.93542 16.7203 5.93542V5.93735Z" fill="#EDEDED"/>
</svg>
