<svg width="65" height="65" viewBox="0 0 65 65" fill="none" xmlns="http://www.w3.org/2000/svg">
<path d="M49.1456 48.7821H57.1475V32.7783H49.1456V48.7821ZM53.1466 35.779V40.7802H56.1473L53.1466 45.7814V40.7802H50.1459L53.1466 35.779Z" fill="#2A3334"/>
<path d="M54.1468 55.7839H52.1464V57.7844H54.1468V55.7839Z" fill="#2A3334"/>
<path d="M59.148 29.7776H47.1452C46.8799 29.7776 46.6255 29.883 46.4379 30.0706C46.2503 30.2581 46.1449 30.5125 46.1449 30.7778V52.7831C46.1449 53.0484 46.2503 53.3028 46.4379 53.4904C46.6255 53.6779 46.8799 53.7833 47.1452 53.7833H59.148C59.4133 53.7833 59.6677 53.6779 59.8553 53.4904C60.0429 53.3028 60.1483 53.0484 60.1483 52.7831V30.7778C60.1483 30.5125 60.0429 30.2581 59.8553 30.0706C59.6677 29.883 59.4133 29.7776 59.148 29.7776ZM59.148 49.7824C59.148 50.0476 59.0427 50.3021 58.8551 50.4896C58.6675 50.6772 58.4131 50.7826 58.1478 50.7826H48.1454C47.8801 50.7826 47.6257 50.6772 47.4381 50.4896C47.2505 50.3021 47.1452 50.0476 47.1452 49.7824V31.7781C47.1452 31.5128 47.2505 31.2584 47.4381 31.0708C47.6257 30.8832 47.8801 30.7778 48.1454 30.7778H58.1478C58.4131 30.7778 58.6675 30.8832 58.8551 31.0708C59.0427 31.2584 59.148 31.5128 59.148 31.7781V49.7824ZM26.1401 42.7807V30.7778C26.1401 30.5125 26.0348 30.2581 25.8472 30.0706C25.6596 29.883 25.4052 29.7776 25.1399 29.7776H5.13513C4.86985 29.7776 4.61543 29.883 4.42785 30.0706C4.24027 30.2581 4.13489 30.5125 4.13489 30.7778V42.7807C4.13489 43.046 4.24027 43.3004 4.42785 43.488C4.61543 43.6756 4.86985 43.7809 5.13513 43.7809H25.1399C25.4052 43.7809 25.6596 43.6756 25.8472 43.488C26.0348 43.3004 26.1401 43.046 26.1401 42.7807ZM15.1375 41.7805V36.7793H12.1368L15.1375 31.7781V36.7793H18.1382L15.1375 41.7805Z" fill="#2A3334"/>
<path d="M16.1377 45.7815H14.1373V46.7817H16.1377V45.7815Z" fill="#2A3334"/>
<path d="M41.4538 11.7734H51.2761L50.846 8.77271H41.0937L41.4538 11.7734Z" fill="#2A3334"/>
<path d="M39.0833 8.77271H25.1999L24.8499 11.7734H39.4333L39.0833 8.77271Z" fill="#2A3334"/>
<path d="M42.0339 16.7746H51.9962L51.5661 13.7739H41.6838L42.0339 16.7746Z" fill="#2A3334"/>
<path d="M50.5659 6.77221L50.2758 4.77173H40.6335L40.8635 6.77221H50.5659Z" fill="#2A3334"/>
<path d="M38.613 4.77173H25.6699L25.4299 6.77221H38.8531L38.613 4.77173Z" fill="#2A3334"/>
<path d="M22.5993 13.7739H12.7169L12.2868 16.7746H22.2492L22.5993 13.7739Z" fill="#2A3334"/>
<path d="M23.1896 8.77271H13.4372L13.0071 11.7734H22.8295L23.1896 8.77271Z" fill="#2A3334"/>
<path d="M23.6494 4.77173H14.0071L13.717 6.77221H23.4194L23.6494 4.77173Z" fill="#2A3334"/>
<path d="M39.6735 13.7739H24.6099L24.2598 16.7746H40.0236L39.6735 13.7739Z" fill="#2A3334"/>
<path d="M34.142 18.7749H30.1411V20.7754H34.142V18.7749Z" fill="#2A3334"/>
<path d="M43.1442 55.7839L39.1432 52.7832V54.7837H37.1427V48.7822H35.1423V55.7839C35.1423 56.0492 35.2476 56.3036 35.4352 56.4912C35.6228 56.6788 35.8772 56.7841 36.1425 56.7841H39.1432V58.7846L43.1442 55.7839ZM21.1389 55.7839L25.1399 58.7846V56.7841H28.1406C28.4059 56.7841 28.6603 56.6788 28.8479 56.4912C29.0354 56.3036 29.1408 56.0492 29.1408 55.7839V48.7822H27.1404V54.7837H25.1399V52.7832L21.1389 55.7839Z" fill="#2A3334"/>
<path d="M20.1387 47.782H10.1363V49.7825H20.1387V47.782Z" fill="#2A3334"/>
<path d="M52.1464 60.785H33.1418V21.7756H31.1413V60.785H16.1377V50.7826H14.1373V61.7852C14.1373 62.0505 14.2427 62.3049 14.4302 62.4925C14.6178 62.6801 14.8722 62.7854 15.1375 62.7854H53.1466C53.4119 62.7854 53.6663 62.6801 53.8539 62.4925C54.0414 62.3049 54.1468 62.0505 54.1468 61.7852V58.7845H52.1464V60.785Z" fill="#2A3334"/>
</svg>
