<svg width="15" height="15" viewBox="0 0 15 15" fill="none" xmlns="http://www.w3.org/2000/svg">
<path d="M6.25634 4.4152C6.7053 3.29595 6.92977 2.73633 7.31579 2.73633C7.70181 2.73633 7.92629 3.29595 8.37525 4.4152L8.39615 4.46732C8.64979 5.09964 8.77661 5.4158 9.03508 5.60797C9.29354 5.80014 9.63283 5.83052 10.3114 5.89129L10.4341 5.90228C11.5447 6.00174 12.1 6.05147 12.2188 6.40476C12.3376 6.75805 11.9252 7.13323 11.1005 7.88359L10.8252 8.13403C10.4077 8.51387 10.1989 8.7038 10.1016 8.95272C10.0835 8.99915 10.0684 9.04673 10.0565 9.09513C9.9925 9.35463 10.0536 9.63015 10.1759 10.1812L10.2139 10.3527C10.4386 11.3654 10.551 11.8718 10.3548 12.0902C10.2815 12.1718 10.1863 12.2306 10.0804 12.2594C9.79722 12.3367 9.39514 12.0091 8.59097 11.3538C8.06293 10.9235 7.7989 10.7084 7.49578 10.66C7.37654 10.6409 7.25504 10.6409 7.13581 10.66C6.83268 10.7084 6.56865 10.9235 6.04061 11.3538C5.23644 12.0091 4.83436 12.3367 4.55115 12.2594C4.44532 12.2306 4.35006 12.1718 4.27676 12.0902C4.0806 11.8718 4.19295 11.3654 4.41764 10.3527L4.45569 10.1812C4.57796 9.63015 4.63909 9.35463 4.57513 9.09513C4.5632 9.04673 4.54811 8.99915 4.52996 8.95272C4.43266 8.7038 4.22391 8.51387 3.8064 8.13403L3.53113 7.88359C2.70637 7.13323 2.29398 6.75805 2.4128 6.40476C2.53162 6.05147 3.08691 6.00174 4.19749 5.90228L4.32017 5.89129C4.99875 5.83052 5.33804 5.80014 5.59651 5.60797C5.85497 5.4158 5.98179 5.09964 6.23543 4.46732L6.25634 4.4152Z" fill="#E1DFD8" stroke="#E1DFD8" stroke-width="0.492464"/>
</svg>
