<svg width="15" height="15" viewBox="0 0 15 15" fill="none" xmlns="http://www.w3.org/2000/svg">
<path d="M6.29418 4.74943C6.74314 3.63018 6.96762 3.07056 7.35363 3.07056C7.73965 3.07056 7.96413 3.63018 8.41309 4.74943L8.43399 4.80155C8.68763 5.43387 8.81445 5.75003 9.07292 5.9422C9.33138 6.13436 9.67067 6.16475 10.3493 6.22552L10.4719 6.23651C11.5825 6.33597 12.1378 6.3857 12.2566 6.73899C12.3754 7.09228 11.9631 7.46746 11.1383 8.21782L10.863 8.46826C10.4455 8.8481 10.2368 9.03803 10.1395 9.28695C10.1213 9.33338 10.1062 9.38096 10.0943 9.42936C10.0303 9.68886 10.0915 9.96438 10.2137 10.5154L10.2518 10.687C10.4765 11.6997 10.5888 12.206 10.3927 12.4244C10.3194 12.506 10.2241 12.5648 10.1183 12.5937C9.83507 12.671 9.43298 12.3433 8.62882 11.688C8.10077 11.2578 7.83675 11.0426 7.53362 10.9942C7.41438 10.9752 7.29288 10.9752 7.17365 10.9942C6.87052 11.0426 6.6065 11.2578 6.07845 11.688C5.27428 12.3433 4.8722 12.671 4.58899 12.5937C4.48316 12.5648 4.3879 12.506 4.3146 12.4244C4.11844 12.206 4.23079 11.6997 4.45548 10.687L4.49354 10.5154C4.6158 9.96438 4.67693 9.68886 4.61297 9.42936C4.60104 9.38096 4.58595 9.33338 4.5678 9.28695C4.4705 9.03803 4.26175 8.8481 3.84424 8.46826L3.56897 8.21782C2.74421 7.46746 2.33183 7.09228 2.45064 6.73899C2.56946 6.3857 3.12475 6.33597 4.23534 6.23651L4.35801 6.22552C5.03659 6.16475 5.37588 6.13436 5.63435 5.9422C5.89281 5.75003 6.01963 5.43387 6.27327 4.80155L6.29418 4.74943Z" fill="#ECBA0B" stroke="#ECBA0B" stroke-width="0.492464"/>
</svg>
