<svg width="15" height="15" viewBox="0 0 15 15" fill="none" xmlns="http://www.w3.org/2000/svg">
<path d="M6.33239 4.74967C6.78135 3.63043 7.00582 3.0708 7.39184 3.0708C7.77786 3.0708 8.00234 3.63043 8.45129 4.74968L8.4722 4.80179C8.72584 5.43411 8.85266 5.75027 9.11113 5.94244C9.36959 6.13461 9.70888 6.16499 10.3875 6.22577L10.5101 6.23675C11.6207 6.33621 12.176 6.38595 12.2948 6.73923C12.4136 7.09252 12.0013 7.4677 11.1765 8.21807L10.9012 8.4685C10.4837 8.84835 10.275 9.03827 10.1777 9.28719C10.1595 9.33363 10.1444 9.3812 10.1325 9.42961C10.0685 9.6891 10.1297 9.96463 10.2519 10.5157L10.29 10.6872C10.5147 11.6999 10.627 12.2063 10.4309 12.4247C10.3576 12.5063 10.2623 12.565 10.1565 12.5939C9.87327 12.6712 9.47119 12.3436 8.66702 11.6883C8.13898 11.258 7.87495 11.0429 7.57183 10.9945C7.45259 10.9754 7.33109 10.9754 7.21186 10.9945C6.90873 11.0429 6.6447 11.258 6.11666 11.6883C5.31249 12.3436 4.91041 12.6712 4.6272 12.5939C4.52137 12.565 4.42611 12.5063 4.35281 12.4247C4.15665 12.2063 4.269 11.6999 4.49369 10.6872L4.53174 10.5157C4.65401 9.96463 4.71514 9.6891 4.65118 9.42961C4.63925 9.3812 4.62416 9.33363 4.60601 9.28719C4.50871 9.03827 4.29996 8.84835 3.88245 8.4685L3.60718 8.21807C2.78242 7.4677 2.37003 7.09252 2.48885 6.73923C2.60767 6.38595 3.16296 6.33621 4.27354 6.23675L4.39622 6.22577C5.0748 6.16499 5.41409 6.13461 5.67256 5.94244C5.93102 5.75027 6.05784 5.43411 6.31148 4.80179L6.33239 4.74967Z" fill="#ECBA0B" stroke="#ECBA0B" stroke-width="0.492464"/>
</svg>
