<svg width="15" height="15" viewBox="0 0 15 15" fill="none" xmlns="http://www.w3.org/2000/svg">
<path d="M6.31328 4.24845C6.76224 3.1292 6.98672 2.56958 7.37274 2.56958C7.75875 2.56958 7.98323 3.1292 8.43219 4.24845L8.4531 4.30057C8.70674 4.93289 8.83356 5.24905 9.09202 5.44122C9.35049 5.63339 9.68978 5.66377 10.3684 5.72455L10.491 5.73553C11.6016 5.83499 12.1569 5.88472 12.2757 6.23801C12.3945 6.5913 11.9822 6.96648 11.1574 7.71685L10.8821 7.96728C10.4646 8.34713 10.2559 8.53705 10.1586 8.78597C10.1404 8.83241 10.1253 8.87998 10.1134 8.92838C10.0494 9.18788 10.1106 9.46341 10.2328 10.0145L10.2709 10.186C10.4956 11.1987 10.6079 11.705 10.4118 11.9234C10.3385 12.0051 10.2432 12.0638 10.1374 12.0927C9.85417 12.17 9.45209 11.8423 8.64792 11.1871C8.11987 10.7568 7.85585 10.5416 7.55272 10.4932C7.43349 10.4742 7.31199 10.4742 7.19275 10.4932C6.88962 10.5416 6.6256 10.7568 6.09755 11.1871C5.29339 11.8423 4.8913 12.17 4.6081 12.0927C4.50227 12.0638 4.407 12.0051 4.3337 11.9234C4.13755 11.705 4.24989 11.1987 4.47458 10.186L4.51264 10.0145C4.6349 9.46341 4.69603 9.18788 4.63208 8.92838C4.62015 8.87998 4.60506 8.83241 4.58691 8.78597C4.48961 8.53705 4.28085 8.34713 3.86334 7.96728L3.58808 7.71685C2.76331 6.96648 2.35093 6.5913 2.46975 6.23801C2.58857 5.88472 3.14386 5.83499 4.25444 5.73553L4.37712 5.72455C5.0557 5.66377 5.39499 5.63339 5.65345 5.44122C5.91192 5.24905 6.03874 4.93289 6.29238 4.30057L6.31328 4.24845Z" fill="#ECBA0B" stroke="#ECBA0B" stroke-width="0.492464"/>
</svg>
