<svg width="15" height="15" viewBox="0 0 15 15" fill="none" xmlns="http://www.w3.org/2000/svg">
<path d="M6.29418 4.24845C6.74314 3.1292 6.96762 2.56958 7.35363 2.56958C7.73965 2.56958 7.96413 3.1292 8.41309 4.24845L8.43399 4.30057C8.68763 4.93289 8.81445 5.24905 9.07292 5.44122C9.33138 5.63339 9.67067 5.66377 10.3493 5.72455L10.4719 5.73553C11.5825 5.83499 12.1378 5.88472 12.2566 6.23801C12.3754 6.5913 11.9631 6.96648 11.1383 7.71685L10.863 7.96728C10.4455 8.34713 10.2368 8.53705 10.1395 8.78597C10.1213 8.83241 10.1062 8.87998 10.0943 8.92838C10.0303 9.18788 10.0915 9.46341 10.2137 10.0145L10.2518 10.186C10.4765 11.1987 10.5888 11.705 10.3927 11.9234C10.3194 12.0051 10.2241 12.0638 10.1183 12.0927C9.83507 12.17 9.43298 11.8423 8.62882 11.1871C8.10077 10.7568 7.83675 10.5416 7.53362 10.4932C7.41438 10.4742 7.29288 10.4742 7.17365 10.4932C6.87052 10.5416 6.6065 10.7568 6.07845 11.1871C5.27428 11.8423 4.8722 12.17 4.58899 12.0927C4.48316 12.0638 4.3879 12.0051 4.3146 11.9234C4.11844 11.705 4.23079 11.1987 4.45548 10.186L4.49354 10.0145C4.6158 9.46341 4.67693 9.18788 4.61297 8.92838C4.60104 8.87998 4.58595 8.83241 4.5678 8.78597C4.4705 8.53705 4.26175 8.34713 3.84424 7.96728L3.56897 7.71685C2.74421 6.96648 2.33183 6.5913 2.45064 6.23801C2.56946 5.88472 3.12475 5.83499 4.23534 5.73553L4.35801 5.72455C5.03659 5.66377 5.37588 5.63339 5.63435 5.44122C5.89281 5.24905 6.01963 4.93289 6.27327 4.30057L6.29418 4.24845Z" fill="#ECBA0B" stroke="#ECBA0B" stroke-width="0.492464"/>
</svg>
