<svg width="15" height="15" viewBox="0 0 15 15" fill="none" xmlns="http://www.w3.org/2000/svg">
<path d="M6.2755 4.24845C6.72446 3.1292 6.94894 2.56958 7.33496 2.56958C7.72097 2.56958 7.94545 3.1292 8.39441 4.24845L8.41532 4.30057C8.66896 4.93289 8.79577 5.24905 9.05424 5.44122C9.31271 5.63339 9.652 5.66377 10.3306 5.72455L10.4533 5.73553C11.5638 5.83499 12.1191 5.88472 12.2379 6.23801C12.3568 6.5913 11.9444 6.96648 11.1196 7.71685L10.8444 7.96728C10.4268 8.34713 10.2181 8.53705 10.1208 8.78597C10.1026 8.83241 10.0875 8.87998 10.0756 8.92838C10.0117 9.18788 10.0728 9.46341 10.1951 10.0145L10.2331 10.186C10.4578 11.1987 10.5701 11.705 10.374 11.9234C10.3007 12.0051 10.2054 12.0638 10.0996 12.0927C9.81639 12.17 9.41431 11.8423 8.61014 11.1871C8.08209 10.7568 7.81807 10.5416 7.51494 10.4932C7.39571 10.4742 7.27421 10.4742 7.15497 10.4932C6.85184 10.5416 6.58782 10.7568 6.05977 11.1871C5.25561 11.8423 4.85352 12.17 4.57031 12.0927C4.46449 12.0638 4.36922 12.0051 4.29592 11.9234C4.09977 11.705 4.21211 11.1987 4.4368 10.186L4.47486 10.0145C4.59712 9.46341 4.65825 9.18788 4.5943 8.92838C4.58237 8.87998 4.56728 8.83241 4.54913 8.78597C4.45183 8.53705 4.24307 8.34713 3.82556 7.96728L3.5503 7.71685C2.72553 6.96648 2.31315 6.5913 2.43197 6.23801C2.55079 5.88472 3.10608 5.83499 4.21666 5.73553L4.33934 5.72455C5.01792 5.66377 5.35721 5.63339 5.61567 5.44122C5.87414 5.24905 6.00096 4.93289 6.2546 4.30057L6.2755 4.24845Z" fill="#ECBA0B" stroke="#ECBA0B" stroke-width="0.492464"/>
</svg>
