<svg width="15" height="14" viewBox="0 0 15 14" fill="none" xmlns="http://www.w3.org/2000/svg">
<path d="M6.2755 3.91435C6.72446 2.7951 6.94894 2.23547 7.33496 2.23547C7.72097 2.23547 7.94545 2.7951 8.39441 3.91435L8.41532 3.96647C8.66896 4.59879 8.79577 4.91495 9.05424 5.10711C9.31271 5.29928 9.652 5.32967 10.3306 5.39044L10.4533 5.40143C11.5638 5.50089 12.1191 5.55062 12.2379 5.90391C12.3568 6.25719 11.9444 6.63238 11.1196 7.38274L10.8444 7.63317C10.4268 8.01302 10.2181 8.20294 10.1208 8.45187C10.1026 8.4983 10.0875 8.54587 10.0756 8.59428C10.0117 8.85378 10.0728 9.1293 10.1951 9.68035L10.2331 9.85187C10.4578 10.8646 10.5701 11.3709 10.374 11.5893C10.3007 11.671 10.2054 11.7297 10.0996 11.7586C9.81639 11.8359 9.41431 11.5082 8.61014 10.853C8.08209 10.4227 7.81807 10.2075 7.51494 10.1591C7.39571 10.1401 7.27421 10.1401 7.15497 10.1591C6.85184 10.2075 6.58782 10.4227 6.05977 10.853C5.25561 11.5082 4.85352 11.8359 4.57031 11.7586C4.46449 11.7297 4.36922 11.671 4.29592 11.5893C4.09977 11.3709 4.21211 10.8646 4.4368 9.85187L4.47486 9.68034C4.59712 9.1293 4.65825 8.85378 4.5943 8.59428C4.58237 8.54587 4.56728 8.4983 4.54913 8.45187C4.45183 8.20294 4.24307 8.01302 3.82556 7.63317L3.5503 7.38274C2.72553 6.63238 2.31315 6.25719 2.43197 5.90391C2.55079 5.55062 3.10608 5.50089 4.21666 5.40143L4.33934 5.39044C5.01792 5.32967 5.35721 5.29928 5.61567 5.10711C5.87414 4.91495 6.00096 4.59879 6.2546 3.96647L6.2755 3.91435Z" fill="#ECBA0B" stroke="#ECBA0B" stroke-width="0.492464"/>
</svg>
