<svg width="15" height="15" viewBox="0 0 15 15" fill="none" xmlns="http://www.w3.org/2000/svg">
<path d="M6.31328 4.74943C6.76224 3.63018 6.98672 3.07056 7.37274 3.07056C7.75875 3.07056 7.98323 3.63018 8.43219 4.74943L8.4531 4.80155C8.70674 5.43387 8.83356 5.75003 9.09202 5.9422C9.35049 6.13436 9.68978 6.16475 10.3684 6.22552L10.491 6.23651C11.6016 6.33597 12.1569 6.3857 12.2757 6.73899C12.3945 7.09228 11.9822 7.46746 11.1574 8.21782L10.8821 8.46826C10.4646 8.8481 10.2559 9.03803 10.1586 9.28695C10.1404 9.33338 10.1253 9.38096 10.1134 9.42936C10.0494 9.68886 10.1106 9.96438 10.2328 10.5154L10.2709 10.687C10.4956 11.6997 10.6079 12.206 10.4118 12.4244C10.3385 12.506 10.2432 12.5648 10.1374 12.5937C9.85417 12.671 9.45209 12.3433 8.64792 11.688C8.11987 11.2578 7.85585 11.0426 7.55272 10.9942C7.43349 10.9752 7.31199 10.9752 7.19275 10.9942C6.88962 11.0426 6.6256 11.2578 6.09755 11.688C5.29339 12.3433 4.8913 12.671 4.6081 12.5937C4.50227 12.5648 4.407 12.506 4.3337 12.4244C4.13755 12.206 4.24989 11.6997 4.47458 10.687L4.51264 10.5154C4.6349 9.96438 4.69603 9.68886 4.63208 9.42936C4.62015 9.38096 4.60506 9.33338 4.58691 9.28695C4.48961 9.03803 4.28085 8.8481 3.86334 8.46826L3.58808 8.21782C2.76331 7.46746 2.35093 7.09228 2.46975 6.73899C2.58857 6.3857 3.14386 6.33597 4.25444 6.23651L4.37712 6.22552C5.0557 6.16475 5.39499 6.13436 5.65345 5.9422C5.91192 5.75003 6.03874 5.43387 6.29238 4.80155L6.31328 4.74943Z" fill="#ECBA0B" stroke="#ECBA0B" stroke-width="0.492464"/>
</svg>
