<svg width="15" height="15" viewBox="0 0 15 15" fill="none" xmlns="http://www.w3.org/2000/svg">
<path d="M6.33239 4.24833C6.78135 3.12908 7.00582 2.56946 7.39184 2.56946C7.77786 2.56946 8.00234 3.12908 8.45129 4.24833L8.4722 4.30045C8.72584 4.93277 8.85266 5.24893 9.11113 5.4411C9.36959 5.63327 9.70888 5.66365 10.3875 5.72442L10.5101 5.73541C11.6207 5.83487 12.176 5.8846 12.2948 6.23789C12.4136 6.59118 12.0013 6.96636 11.1765 7.71672L10.9012 7.96716C10.4837 8.347 10.275 8.53693 10.1777 8.78585C10.1595 8.83228 10.1444 8.87986 10.1325 8.92826C10.0685 9.18776 10.1297 9.46328 10.2519 10.0143L10.29 10.1859C10.5147 11.1986 10.627 11.7049 10.4309 11.9233C10.3576 12.0049 10.2623 12.0637 10.1565 12.0926C9.87327 12.1699 9.47119 11.8422 8.66702 11.1869C8.13898 10.7567 7.87495 10.5415 7.57183 10.4931C7.45259 10.4741 7.33109 10.4741 7.21186 10.4931C6.90873 10.5415 6.6447 10.7567 6.11666 11.1869C5.31249 11.8422 4.91041 12.1699 4.6272 12.0926C4.52137 12.0637 4.42611 12.0049 4.35281 11.9233C4.15665 11.7049 4.269 11.1986 4.49369 10.1859L4.53174 10.0143C4.65401 9.46328 4.71514 9.18776 4.65118 8.92826C4.63925 8.87986 4.62416 8.83228 4.60601 8.78585C4.50871 8.53693 4.29996 8.347 3.88245 7.96716L3.60718 7.71672C2.78242 6.96636 2.37003 6.59118 2.48885 6.23789C2.60767 5.8846 3.16296 5.83487 4.27354 5.73541L4.39622 5.72442C5.0748 5.66365 5.41409 5.63327 5.67256 5.4411C5.93102 5.24893 6.05784 4.93277 6.31148 4.30045L6.33239 4.24833Z" fill="#ECBA0B" stroke="#ECBA0B" stroke-width="0.492464"/>
</svg>
