<svg width="15" height="14" viewBox="0 0 15 14" fill="none" xmlns="http://www.w3.org/2000/svg">
<path d="M6.29418 3.91435C6.74314 2.7951 6.96762 2.23547 7.35363 2.23547C7.73965 2.23547 7.96413 2.7951 8.41309 3.91435L8.43399 3.96647C8.68763 4.59879 8.81445 4.91495 9.07292 5.10711C9.33138 5.29928 9.67067 5.32967 10.3493 5.39044L10.4719 5.40143C11.5825 5.50089 12.1378 5.55062 12.2566 5.90391C12.3754 6.25719 11.9631 6.63238 11.1383 7.38274L10.863 7.63317C10.4455 8.01302 10.2368 8.20294 10.1395 8.45187C10.1213 8.4983 10.1062 8.54587 10.0943 8.59428C10.0303 8.85378 10.0915 9.1293 10.2137 9.68035L10.2518 9.85187C10.4765 10.8646 10.5888 11.3709 10.3927 11.5893C10.3194 11.671 10.2241 11.7297 10.1183 11.7586C9.83507 11.8359 9.43298 11.5082 8.62882 10.853C8.10077 10.4227 7.83675 10.2075 7.53362 10.1591C7.41438 10.1401 7.29288 10.1401 7.17365 10.1591C6.87052 10.2075 6.6065 10.4227 6.07845 10.853C5.27428 11.5082 4.8722 11.8359 4.58899 11.7586C4.48316 11.7297 4.3879 11.671 4.3146 11.5893C4.11844 11.3709 4.23079 10.8646 4.45548 9.85187L4.49354 9.68034C4.6158 9.1293 4.67693 8.85378 4.61297 8.59428C4.60104 8.54587 4.58595 8.4983 4.5678 8.45187C4.4705 8.20294 4.26175 8.01302 3.84424 7.63317L3.56897 7.38274C2.74421 6.63238 2.33183 6.25719 2.45064 5.90391C2.56946 5.55062 3.12475 5.50089 4.23534 5.40143L4.35801 5.39044C5.03659 5.32967 5.37588 5.29928 5.63435 5.10711C5.89281 4.91495 6.01963 4.59879 6.27327 3.96647L6.29418 3.91435Z" fill="#ECBA0B" stroke="#ECBA0B" stroke-width="0.492464"/>
</svg>
