<svg width="15" height="14" viewBox="0 0 15 14" fill="none" xmlns="http://www.w3.org/2000/svg">
<path d="M6.25646 3.91435C6.70542 2.7951 6.9299 2.23547 7.31591 2.23547C7.70193 2.23547 7.92641 2.7951 8.37537 3.91435L8.39627 3.96647C8.64991 4.59879 8.77673 4.91495 9.0352 5.10711C9.29366 5.29928 9.63295 5.32967 10.3115 5.39044L10.4342 5.40143C11.5448 5.50089 12.1001 5.55062 12.2189 5.90391C12.3377 6.25719 11.9253 6.63238 11.1006 7.38274L10.8253 7.63317C10.4078 8.01302 10.199 8.20294 10.1017 8.45187C10.0836 8.4983 10.0685 8.54587 10.0566 8.59428C9.99262 8.85378 10.0537 9.1293 10.176 9.68035L10.2141 9.85187C10.4388 10.8646 10.5511 11.3709 10.3549 11.5893C10.2816 11.671 10.1864 11.7297 10.0806 11.7586C9.79735 11.8359 9.39526 11.5082 8.5911 10.853C8.06305 10.4227 7.79903 10.2075 7.4959 10.1591C7.37666 10.1401 7.25516 10.1401 7.13593 10.1591C6.8328 10.2075 6.56878 10.4227 6.04073 10.853C5.23656 11.5082 4.83448 11.8359 4.55127 11.7586C4.44544 11.7297 4.35018 11.671 4.27688 11.5893C4.08072 11.3709 4.19307 10.8646 4.41776 9.85187L4.45582 9.68034C4.57808 9.1293 4.63921 8.85378 4.57525 8.59428C4.56332 8.54587 4.54823 8.4983 4.53008 8.45187C4.43278 8.20294 4.22403 8.01302 3.80652 7.63317L3.53125 7.38274C2.70649 6.63238 2.29411 6.25719 2.41292 5.90391C2.53174 5.55062 3.08703 5.50089 4.19762 5.40143L4.32029 5.39044C4.99887 5.32967 5.33816 5.29928 5.59663 5.10711C5.8551 4.91495 5.98191 4.59879 6.23555 3.96647L6.25646 3.91435Z" fill="#E1DFD8" stroke="#E1DFD8" stroke-width="0.492464"/>
</svg>
