<svg width="15" height="15" viewBox="0 0 15 15" fill="none" xmlns="http://www.w3.org/2000/svg">
<path d="M6.25646 4.24845C6.70542 3.1292 6.9299 2.56958 7.31591 2.56958C7.70193 2.56958 7.92641 3.1292 8.37537 4.24845L8.39627 4.30057C8.64991 4.93289 8.77673 5.24905 9.0352 5.44122C9.29366 5.63339 9.63295 5.66377 10.3115 5.72455L10.4342 5.73553C11.5448 5.83499 12.1001 5.88472 12.2189 6.23801C12.3377 6.5913 11.9253 6.96648 11.1006 7.71685L10.8253 7.96728C10.4078 8.34713 10.199 8.53705 10.1017 8.78597C10.0836 8.83241 10.0685 8.87998 10.0566 8.92838C9.99262 9.18788 10.0537 9.46341 10.176 10.0145L10.2141 10.186C10.4388 11.1987 10.5511 11.705 10.3549 11.9234C10.2816 12.0051 10.1864 12.0638 10.0806 12.0927C9.79735 12.17 9.39526 11.8423 8.5911 11.1871C8.06305 10.7568 7.79903 10.5416 7.4959 10.4932C7.37666 10.4742 7.25516 10.4742 7.13593 10.4932C6.8328 10.5416 6.56878 10.7568 6.04073 11.1871C5.23656 11.8423 4.83448 12.17 4.55127 12.0927C4.44544 12.0638 4.35018 12.0051 4.27688 11.9234C4.08072 11.705 4.19307 11.1987 4.41776 10.186L4.45582 10.0145C4.57808 9.46341 4.63921 9.18788 4.57525 8.92838C4.56332 8.87998 4.54823 8.83241 4.53008 8.78597C4.43278 8.53705 4.22403 8.34713 3.80652 7.96728L3.53125 7.71685C2.70649 6.96648 2.29411 6.5913 2.41292 6.23801C2.53174 5.88472 3.08703 5.83499 4.19762 5.73553L4.32029 5.72455C4.99887 5.66377 5.33816 5.63339 5.59663 5.44122C5.8551 5.24905 5.98191 4.93289 6.23555 4.30057L6.25646 4.24845Z" fill="#E1DFD8" stroke="#E1DFD8" stroke-width="0.492464"/>
</svg>
