<svg width="15" height="15" viewBox="0 0 15 15" fill="none" xmlns="http://www.w3.org/2000/svg">
<path d="M13.94 14.3471C12.3002 14.3471 10.68 13.9898 9.07958 13.2751C7.47913 12.5604 6.02299 11.5469 4.71114 10.2345C3.3993 8.92212 2.38603 7.46597 1.67134 5.86604C0.956644 4.26612 0.599035 2.64599 0.598511 1.00566C0.598511 0.769529 0.677221 0.572752 0.834643 0.415331C0.992064 0.25791 1.18884 0.179199 1.42497 0.179199H4.61275C4.79641 0.179199 4.96039 0.241643 5.1047 0.36653C5.249 0.491418 5.33427 0.638869 5.36051 0.808884L5.87212 3.56376C5.89836 3.77365 5.8918 3.95075 5.85245 4.09505C5.81309 4.23936 5.74094 4.36398 5.63599 4.46893L3.72726 6.39734C3.98963 6.88272 4.30106 7.35158 4.66155 7.8039C5.02205 8.25622 5.41901 8.69254 5.85245 9.11286C6.25912 9.51953 6.68547 9.89682 7.13149 10.2447C7.57752 10.5926 8.04979 10.9106 8.54829 11.1987L10.398 9.34899C10.5161 9.23092 10.6703 9.1425 10.8608 9.08373C11.0513 9.02496 11.2381 9.00843 11.4212 9.03415L14.1367 9.58512C14.3204 9.6376 14.4713 9.73283 14.5893 9.87084C14.7074 10.0088 14.7664 10.1629 14.7664 10.3329V13.5207C14.7664 13.7568 14.6877 13.9536 14.5303 14.111C14.3729 14.2684 14.1761 14.3471 13.94 14.3471Z" fill="white"/>
</svg>
